<svg xmlns="http://www.w3.org/2000/svg" viewBox="0 0 63.25 79.91"><defs><style>.cls-1{fill:#fff;}.cls-2{fill:#213e78;}.cls-3{fill:#31984d;}</style></defs><title>fpfa-logo</title><g id="Layer_2" data-name="Layer 2"><g id="Layer_1-2" data-name="Layer 1"><g id="FPFA_Logo" data-name="FPFA Logo"><path class="cls-1" d="M32.14.14,31.62,0,1.49,8.05,0,8.45v31A38.94,38.94,0,0,0,20.07,73.51l10.58,5.86,1,.54,11.55-6.4A38.88,38.88,0,0,0,59.4,56.33a39.2,39.2,0,0,0,3.85-16.89v-31Z"/><path class="cls-1" d="M31.65,2h0L2,9.89l-.08,0V39.44A37.34,37.34,0,0,0,5.56,55.5,36.83,36.83,0,0,0,21,71.84l10.58,5.87.05,0,10.64-5.9A36.81,36.81,0,0,0,57.68,55.5a37.24,37.24,0,0,0,3.67-16.06V9.91Z"/><path class="cls-2" d="M31.62,3.93,3.8,11.37V39.44A35.3,35.3,0,0,0,7.28,54.68a34.92,34.92,0,0,0,14.63,15.5l9.71,5.38,9.72-5.38A34.92,34.92,0,0,0,56,54.68a35.3,35.3,0,0,0,3.48-15.24V11.37Z"/><polygon class="cls-1" points="14.11 14.31 14.11 12.69 9.86 12.69 5.7 12.69 5.7 23.64 9.86 23.64 9.86 18.72 14.11 18.72 14.11 17.1 9.86 17.1 9.86 14.31 14.11 14.31"/><polygon class="cls-1" points="41.8 14.31 41.8 12.69 37.56 12.69 33.39 12.69 33.39 23.64 37.56 23.64 37.56 18.72 41.8 18.72 41.8 17.1 37.56 17.1 37.56 14.31 41.8 14.31"/><path class="cls-1" d="M53.39,23.64h4.16l-3.8-11H49.14l-3.8,11h2.15l1.14-3.27h3.62Zm-4.2-4.89,1.25-3.61,1.25,3.61Z"/><path class="cls-1" d="M26.81,12.69H18.46v11h4.16V19.56h4.19A2.23,2.23,0,0,0,29,17.32v-2.4A2.23,2.23,0,0,0,26.81,12.69ZM25.25,17.1a.67.67,0,0,1-.67.67h-2V14.48h2a.67.67,0,0,1,.67.67Z"/><path class="cls-3" d="M57.55,39.44V25.12H29.84l27,21.05A33,33,0,0,0,57.55,39.44Z"/><path class="cls-1" d="M54.26,53.86h0a33.52,33.52,0,0,0,2.6-7.69l-27-21H5.7V39.44c0,1.12.06,2.25.17,3.37L39.52,69l.9-.5A33.24,33.24,0,0,0,54.26,53.86Z"/><path class="cls-2" d="M44,47.24c-.09-.39-.2-.78-.32-1.17l-.19-.58c-.09-.25-.19-.49-.29-.74-.17-.42-.35-.84-.56-1.25A5.21,5.21,0,0,0,42.4,43c-.19-.37-.4-.74-.63-1.1s-.54-.84-.84-1.24l-.19-.26c-.21-.27-.42-.54-.65-.81a13.43,13.43,0,0,0-1-1,19.37,19.37,0,0,0-9.58-5.35c-.43-.1-.86-.17-1.29-.24l-1.09-.12-.67,0c-.41,0-.81,0-1.21,0a16.37,16.37,0,0,0-6.89,1.66,16.74,16.74,0,0,0,1.12,10c.16.37.34.75.53,1.12.29.55.6,1.1.95,1.63a18.89,18.89,0,0,0,2.89,3.47l0,0A19,19,0,0,0,25.43,52a15.94,15.94,0,0,0,1.46,1l.34.22a19.14,19.14,0,0,0,6.39,2.46,16.86,16.86,0,0,0,10.53-1.35A16.14,16.14,0,0,0,44,47.24Z"/><path class="cls-1" d="M42.66,52.5A25.89,25.89,0,0,0,41.21,49a21.49,21.49,0,0,0-1.84-3.24,25.54,25.54,0,0,0-4.94-5.48,22.09,22.09,0,0,0-6.3-3.79,17.59,17.59,0,0,0-3.57-1,16,16,0,0,0-1.84-.3c-.63-.08-1.25-.07-1.88-.12a18.49,18.49,0,0,1,14.23,4.47l1.41,1.31c.23.23.48.43.7.67l.63.73A20.09,20.09,0,0,1,40,45.38,21.22,21.22,0,0,1,42.66,52.5Z"/><polygon class="cls-2" points="31.12 30.29 31.43 31.25 32.44 31.25 31.63 31.84 31.94 32.8 31.12 32.21 30.3 32.8 30.62 31.84 29.8 31.25 30.81 31.25 31.12 30.29"/><polygon class="cls-1" points="22.07 38.6 22.38 39.55 23.39 39.55 22.57 40.15 22.89 41.11 22.07 40.51 21.25 41.11 21.57 40.15 20.75 39.55 21.76 39.55 22.07 38.6"/><polygon class="cls-1" points="31.12 40.3 31.43 41.26 32.44 41.26 31.63 41.85 31.94 42.81 31.12 42.22 30.3 42.81 30.62 41.85 29.8 41.26 30.81 41.26 31.12 40.3"/><polygon class="cls-1" points="37.71 44.56 38.03 45.52 39.03 45.52 38.22 46.11 38.53 47.07 37.71 46.48 36.9 47.07 37.21 46.11 36.39 45.52 37.4 45.52 37.71 44.56"/><polygon class="cls-1" points="31.12 49.26 31.43 50.22 32.44 50.22 31.63 50.81 31.94 51.77 31.12 51.17 30.3 51.77 30.62 50.81 29.8 50.22 30.81 50.22 31.12 49.26"/><path class="cls-3" d="M9,53.86H9A33.24,33.24,0,0,0,22.83,68.52l8.79,4.87L39.52,69,5.87,42.81A33.26,33.26,0,0,0,9,53.86Z"/></g></g></g></svg>