<svg xmlns="http://www.w3.org/2000/svg" viewBox="0 0 220 112.09"><defs><style>.cls-1,.cls-6{fill:#b9c9d2;}.cls-2,.cls-4{fill:#fff;}.cls-3{fill:#cd1337;}.cls-3,.cls-4,.cls-5,.cls-6{fill-rule:evenodd;}</style></defs><title>red-feet-header</title><g id="Layer_2" data-name="Layer 2"><g id="Layer_1-2" data-name="Layer 1"><path class="cls-1" d="M25.93,85.24,0,77.92,7.67,50.19l2.55-.72C11,46.71,12,42.84,13.08,38.89l.75-2.78,1.8-6.65-2.21.23L15.79,21c.33-1.22,1.46-5.31,2.61-9.47L21.2,1.36l4.75,0,6.92.07c2.34,0,4.65.07,6.91.13l1.23,0c1.05,0,2,.13,2.74.22l.26,0,.82.12c.9.14,1.7.3,2.36.47A15.16,15.16,0,0,1,48.9,3c.51.2,1,.42,1.51.67a11.43,11.43,0,0,1,4.45,4.05,16.11,16.11,0,0,1,1.91,4.34l113.51.12c-.18-.88-.38-1.81-.59-2.81l-1.54-7.26,7.43-.23c4.07-.13,8.3-.24,12.56-.32s8.37-.14,12.62-.18l4.74,0,1.29,4.57c.62,2.22,1.25,4.45,1.88,6.67l2,7c.81,2.84,1.6,5.67,2.4,8.51L217,42l-8.92-1.47c.46,1.75,1,3.75,1.48,5.75l.47,1.84,2.74.75,1.43,5.39c.08.25.15.51.22.79L220,76l-25.83,7.23-.78-.36c-4-1.82-9.39-4.31-15.81-6.76l-2.81-1.08,0,0-1-.37a167.46,167.46,0,0,0-21.43-6.09l-2.1-.44a182.49,182.49,0,0,0-20-2.87l-2.78-.22c-5.65-.41-11.49-.59-17.36-.52q-2.58,0-5.1.12l-4,.18a195.56,195.56,0,0,0-20.29,2.17l-1.87.32a176.56,176.56,0,0,0-19,4.35l-1.1.32h0l-1.3.39c-3.44,1-6.9,2.23-10.31,3.5l-1.05.4,0,0L42.83,77.6c-6.56,2.65-12.08,5.31-16.11,7.26ZM5.73,74.7l19.76,5.58c3.3-1.6,7.49-3.59,12.37-5.66L16.77,53.3,46.55,71.17c2.07-.75,4.15-1.48,6.23-2.16L38.59,51.58l21,15.35c5-1.41,10.14-2.62,15.32-3.6L65.38,43.85l15.85,18.4C87,61.35,93,60.71,99,60.33l8.33-32.1L107.23,60c.92,0,1.85,0,2.79,0,5.33-.07,10.64.07,15.81.4l7-27-.1,27.59c5.76.57,11.47,1.4,17,2.48l16.48-19.14-10.08,20.5A172.49,172.49,0,0,1,174.24,70l28.12-16.87-19.8,20c4.72,1.91,8.79,3.76,12,5.23l19.75-5.53-1.26-4.72c-1.68-6.26-2.59-9.69-3.1-11.57h0l-1-3.85-2.76-.73L205,47.43c-.9-3.51-1.8-7-2.37-9.21l-.89-3.47,8.73,1.44-1.93-6.86-2.46-8.74-1.92-6.75q-.94-3.33-1.88-6.68L202,6H200.8c-4.24,0-8.46.1-12.57.18s-8.45.19-12.5.32l-1.87.06.39,1.8c.45,2.14.83,4,1.18,5.65l.58,2.8L55.1,16.72,53,16.77l-.39-1.92c0-.26-.11-.55-.19-.86l-.06-.27A11.89,11.89,0,0,0,51,10.26a6.73,6.73,0,0,0-2.64-2.43c-.36-.18-.71-.33-1.07-.47A10,10,0,0,0,46.06,7c-.53-.14-1.18-.26-2-.38l-.39-.07-.47-.07h0c-.66-.08-1.49-.14-2.46-.19l-1.05,0c-2.3,0-4.6-.1-6.93-.13l-6.88-.07H24.75l-1.85,6.7c-.82,2.94-1.62,5.85-2.14,7.72l-1.05,3.9,2.2-.23-1.69,6.22-1.46,5.39,2.15.53-3,2.47-.37,1.37L14.38,52,14,53.23,11.46,54Z"/><path d="M173.15,14.52c-.35-1.68-.73-3.51-1.18-5.64l-1-4.53,4.65-.14q6.18-.19,12.53-.32t12.59-.18l3,0,.8,2.85,1.89,6.68,1.89,6.66h0v0c.85,3,1.68,6,2.52,8.93.41,1.47.82,2.94,1.24,4.41l1.65,5.86-6-1-2.81-.46c.57,2.21,1.47,5.7,2.36,9.21l.82,3.16.59.16,2.16.58.57,2.17.16.58h0c.22.81-.83-3.1,3.73,14l1.85,7L194.37,80.8c-4.33-2-9.62-4.41-16-6.83l9.25-9.35-13.17,7.9a172.63,172.63,0,0,0-21.72-6.17l3.33-6.78-5.46,6.34A184,184,0,0,0,130.41,63l0-11.19-2.84,11c-5.53-.41-11.38-.61-17.56-.53q-2.62,0-5.16.12l0-15.62-4.09,15.8a198.8,198.8,0,0,0-20.54,2.2L75.52,59.2l2.89,5.87a178.27,178.27,0,0,0-19.22,4.41l-7.42-5.41,5,6.13c-3.73,1.14-7.21,2.34-10.45,3.55L31.46,64.84,42,75.44c-6.47,2.61-11.86,5.2-16.25,7.32L2.86,76.31l2-7.16L5,68.73q2-7.26,4-14.55l.58-2.1,2.1-.6.46-.13,3.43-12.71.33-1.21h0L18,29.74l.8-2.94L16.56,27l1.49-5.44h0c.35-1.25,1.52-5.48,2.7-9.73q.72-2.64,1.46-5.28L23,3.7l3,0,6.89.07q3.51,0,6.9.13h.62l.55,0c1,0,1.9.12,2.62.21h0l.48.07.46.07c.88.14,1.59.29,2.15.43a11.62,11.62,0,0,1,1.45.45c.45.17.88.37,1.29.57A9.17,9.17,0,0,1,52.91,9a14.33,14.33,0,0,1,1.8,4.4v0h0c.08.35.15.67.21,1h.17Z"/><path class="cls-2" d="M6.26,72.67l.8-2.91q2.07-7.47,4.14-15l.24-.85.85-.24L14,53.22c.65-2.42,1.31-4.85,2-7.27.72-2.64,1.44-5.27,2.15-7.91l.48-1.77q1.62-6,3.27-12.07l-2.2.21.59-2.19q2-7.51,4.15-15L24.73,6h1.2c4.94,0,9.44.09,13.76.19,1.32,0,2.52.11,3.55.23A21,21,0,0,1,46.06,7a10.9,10.9,0,0,1,2.25.84c2,1,3.38,3,4.14,6.12a22.58,22.58,0,0,1,0,9.74,27.82,27.82,0,0,1-2.59,7.67,18.83,18.83,0,0,1-3.62,5c.38,2.66.81,5.48,1.31,8.55l2.79-.58L50,46.76l.2,0,.2,0c.23-1.36.47-2.72.7-4.08l.87-5.05c.48-2.72,1-5.47,1.4-8.19l-1.78.16.39-2q.89-4.74,1.71-9.49l.22-1.27,1.29,0c6.35-.15,13.11-.27,20.09-.33l1.78,0h0c3.32,0,6.67,0,10,0a20.82,20.82,0,0,1,6,.74,10.62,10.62,0,0,1,4.69,3.13,15.34,15.34,0,0,1,3.14,6.08,23.63,23.63,0,0,1,.79,3.77,24.52,24.52,0,0,1,.16,4.2,24.58,24.58,0,0,1-1.63,8.16,17,17,0,0,1-3.74,5.95,12.72,12.72,0,0,1-4.9,3.07,40,40,0,0,1-7.31,1.3h0c-3.24.38-6.79.86-10.84,1.47l-2,.32c-7.59,1.37-15.3,3-22.92,4.85l-1.92.5c-3.9,1-7.83,2.15-11.22,3.12l-1.78.52-.22-1.85c-.43-3.75-.76-7.07-1-10.13-.24-2.89-.44-5.87-.63-8.78l-.84.17-.58,2.43c-.29,1.23-.59,2.47-.88,3.7l2.28-.59-3.9,16.85L27,65.6c-5.85,1.89-11.88,3.94-17.92,6.07ZM14,56.5,10.9,67.7c4.82-1.68,9.62-3.29,14.31-4.82L27.54,52.8l-2.29.57.58-2.5c.48-2.08,1-4.16,1.48-6.25l1.05-4.39,1-.19,3.58-.72L34.7,39l.2,3.13c.2,3,.4,6.18.66,9.19.21,2.52.47,5.21.8,8.18C39,58.7,42,57.87,44.89,57.09l1.57-8.72-1.45.3-.26-1.62C44.08,43,43.52,39.37,43,36l-.12-.86.67-.57a15,15,0,0,0,3.52-4.66,24.58,24.58,0,0,0,2.29-6.81,19.7,19.7,0,0,0,0-8.39c-.53-2.15-1.36-3.48-2.53-4.08a7.45,7.45,0,0,0-1.61-.6,18,18,0,0,0-2.4-.43c-.93-.11-2-.18-3.24-.21-3.95-.09-8-.15-12.51-.19Q25.49,15,23.9,20.84l2.22-.24-.61,2.22q-2,7.14-3.87,14.27l-.48,1.77c-.72,2.64-1.43,5.28-2.15,7.91s-1.47,5.42-2.2,8.13l-.24.85-.84.25Zm37.23-6.79-.39,2.2c-.23,1.29-.45,2.57-.68,3.85,6.54-1.54,13.12-2.92,19.62-4.12.16-1.48.32-3,.49-4.44.14-1.21.29-2.42.43-3.63l-2.79.37c-.08.58-.16,1.16-.25,1.73l-.18,1.15L66.34,47c-2.07.31-3.74.58-5.25.84l-2.15.38.32-2.16c.12-.8.24-1.6.37-2.41.19-1.21.38-2.43.54-3.65l.16-1.18,1.18-.16q1.65-.24,3.33-.45c.11-.86.23-1.71.34-2.56.07-.55.15-1.1.22-1.66L63,34.22l-2,.2.27-2c.12-1,.26-1.9.4-2.85s.28-1.89.4-2.84l.17-1.27,1.28-.09c1.66-.13,3.3-.23,5-.32L70.35,25l-.2,1.85-.12,1,2.52-.17.24-2.05c.09-.76.17-1.51.26-2.26.16-1.28.3-2.56.44-3.84-5.86.06-11.56.16-17,.29C56.16,21.88,55.78,24,55.4,26l1.65-.13-.3,2C56.22,31.25,55.62,34.69,55,38c-.31,1.75-.6,3.43-.89,5.11s-.59,3.43-.89,5.15l-.19,1.08L52,49.55Zm24.33-4L75,50.8c3.26-.48,6.2-.87,8.93-1.18a38.15,38.15,0,0,0,6.69-1.18,9.25,9.25,0,0,0,3.68-2.33,13.74,13.74,0,0,0,3-4.84,21.53,21.53,0,0,0,1.42-7.12,22.69,22.69,0,0,0-.14-3.69,21.41,21.41,0,0,0-.69-3.29,12.23,12.23,0,0,0-2.46-4.85,7.44,7.44,0,0,0-3.29-2.24,18.33,18.33,0,0,0-5.1-.6H78.46l-.3,2.69-.27,2.39,1.69-.09-.2,1.84-.45,4.41-.48,4.57L77.36,45.51l-1.64.21ZM63.12,41.6c-.12.84-.25,1.68-.38,2.52,0,.09,0,.17,0,.25l2-.32.21-1.6.15-1.11ZM74.32,40l-.24,2c0,.27-.07.55-.11.82l.53-.07L75.32,35l.48-4.57c.09-.86.17-1.72.26-2.59l-.36,0-.18,1.52-.16,1.3-1.3.08c-1.7.1-3.39.22-5.08.34l-.19,1.38c-.17,1.2-.33,2.41-.49,3.61l-.51,3.76-.14,1c1.57-.21,3.11-.42,4.69-.6ZM65.05,28.44l-.24,1.62-.12.83,1.8-.17.2-1.53c0-.28.07-.57.11-.86ZM213.8,70.88,211,70c-6.25-2.08-12.4-4.07-18.27-5.9l-.86-.27-.2-.89c-1-4.35-2-8.72-2.89-13.07l-.53-2.43,2.6.61q-1.24-5.49-2.47-11l-.24-1-.75-3.33-2.16-.28c-1.74-.23-3.49-.44-5.23-.65l-.5-.06.35,1.82-2.15-.27c-1.45-.18-2.91-.34-4.37-.51l.13.8c.45,2.67.91,5.34,1.4,8l.4,2.2-1.35-.22,1.44.29,5.73,1.15,1,.21.2,1c.25,1.21.48,2.42.71,3.62.18,1,.37,2,.57,3q.66,3.28,1.3,6.59l.47,2.46L183,61.19c-8-2.12-15.77-4-23.23-5.57l-2.13-.42c-7.36-1.26-14.85-2.29-22.27-3.08L134,52l-.26-3.9c-.12-1.74-.24-3.49-.34-5.24l-.1-1.77,1.74.11c-.15-2.08-.3-4.17-.43-6.26l-.06-.8c-.15-2.26-.3-4.53-.47-6.79h-.42l.06,1.23.08,1.69L127,30.08l.09,2.59c.06,1.42.11,2.85.18,4.27l.08,1.68-3.87-.08.06,2.07,1.11,0,1.48,0,.06,1.73c.09,2.46.17,4.92.27,7.37l.07,1.7-1.7-.07c-4.48-.16-9-.23-13.94-.21h-1.58V49.62c0-2.52,0-5,0-7.58V40.51l1.53,0h.83q0-3.33,0-6.66V27.15h-2.37l0-4.09c0-1.7,0-3.4,0-5.11l0-1.54h1.54l16.24-.05,4.52,0h1.68c6.86,0,13.6,0,20,0h.09l1.81,0c6.37.09,12.95.26,20.13.49l.53,0c-.57-2.83-1.15-5.67-1.74-8.5l-.38-1.84,1.87-.06C184,6.26,192.46,6.1,200.8,6H202l.33,1.16c.85,3.1,1.73,6.19,2.61,9.29l5.57,19.76L206,35.48l-3.28-.54-.89-.15.25,1,.86,3.34c1.1,4.27,2.2,8.55,3.32,12.81l1.75.48,1,.26.23.88q1.91,7.27,3.86,14.54Zm-19.23-9.56c4.75,1.49,9.68,3.08,14.69,4.73q-1.45-5.41-2.88-10.84l-1.85-.5-.89-.23-.23-.89q-1.8-6.86-3.56-13.71L199,36.53q-1.81-7.05-3.65-14.11l-.57-2.17,3.46.32,1.88.17,1.08.11.29,1c.93,3.37,1.82,6.74,2.71,10.11l1.95.32-4.23-15c-.77-2.72-1.54-5.43-2.29-8.14-7.3.06-14.67.21-22,.42.64,3.08,1.26,6.16,1.87,9.22q.78,3.92,1.58,7.84l.43,2.08,1.92.24c-.55-2.55-1.1-5.11-1.66-7.66l-.45-2,6.31.4.27,1.14q1.68,7.25,3.31,14.48l.24,1c1,4.46,2,8.94,3,13.41l.56,2.45-2.66-.62C193.11,54.84,193.84,58.09,194.57,61.32Zm-33.11-8.55c6.42,1.38,13.09,3,19.88,4.73-.27-1.37-.54-2.74-.82-4.11-.2-1-.38-2-.58-3s-.32-1.71-.49-2.57l-2.9-.58.57,3.17L174.86,50l-5.4-1.09-1.06-.21-1.55-9.51,4.55.75c-.28-1.56-.55-3.12-.82-4.69l-4.47-.54-.18-1.18c-.3-1.95-.62-3.9-.93-5.86l-.33-2,2.2.19,4.79.41,1.19.11.22,1.18c.1.56.19,1.12.29,1.69l.06.35.27,0,2.27.26-.24-1.23c-.22-1.08-.44-2.16-.65-3.25-.17-.87-.33-1.75-.5-2.62s-.33-1.83-.51-2.74c-6-.2-11.6-.34-17-.43.17,1.34.35,2.68.53,4l.21,1.57,1.69.11.18,1.27c.45,3.17.88,6.33,1.32,9.5l.15,1.12c.38,2.79.77,5.58,1.14,8.37l.28,2.08-1.81-.28.08.6C161,49.55,161.24,51.16,161.46,52.77ZM137,49.13c6.35.7,12.74,1.58,19.06,2.62-.06-.46-.12-.91-.17-1.37l-.32-2.5L155,43.63l-2.79-.35c0,.28.06.55.08.82l.18,1.94-8.39-1L144,43.79,143.7,41c-.09-.93-.18-1.85-.26-2.78l-.18-1.88,3.29.3,1.14.11-.41-3.8-4.38-.27-.12-1.35c-.07-.84-.15-1.68-.23-2.52l-.24-2.67-.15-1.78,1.78.07,4.91.2,1.37.06.13,1.37q.06.72.15,1.44l.52,0,2,.13c-.17-1.27-.33-2.55-.49-3.82s-.32-2.58-.48-3.87l-.06-.48c-5.47,0-11.15-.05-16.94,0,.1,1.57.2,3.15.29,4.72l1.7,0,.11,1.44q.3,4.13.57,8.25l.05.8c.18,2.68.36,5.37.57,8l.13,1.8-1.79-.11c.08,1.14.15,2.28.23,3.41ZM112.46,48c3.72,0,7.26.05,10.74.16-.06-1.48-.11-3-.16-4.46l-1,0-1.68,0,0-1.49q-.06-2.59-.15-5.19l-.06-1.66,3.83.08c0-.88-.07-1.75-.1-2.62l0-.72-2.26,0-1.51,0-.21-8,7.92.06.13,2.9,2.56.05c-.06-1.21-.13-2.43-.21-3.65l-.23-3.86h-2.9l-14.69,0c0,1.18,0,2.35,0,3.52V24h2.35v4.32c0,1.83,0,3.65,0,5.48,0,2.74,0,5.49,0,8.23v1.56h-2.39c0,1.48,0,3,0,4.43Zm58.69-2,2.06.41-.57-3.13-2-.32Zm-13-2.26.67.11q-.42-3.12-.86-6.26l-.15-1.12c-.38-2.75-.75-5.48-1.14-8.23l-.48,0c0,.33.09.65.13,1l.25,1.91L154.7,31l-3.88-.26-.63,0,1,9.32,5.42.69,1.22.15L158,42C158.05,42.6,158.13,43.17,158.2,43.74ZM147,42.23l2,.23-.09-.81L148.69,40l-1.94-.18.09.87C146.88,41.23,146.93,41.73,147,42.23Zm21.88-10.41,1.8.22-.14-.78c-.09-.51-.18-1-.26-1.53,0-.15-.06-.31-.08-.47l-1.75-.15C168.57,30,168.72,30.92,168.86,31.82Zm-23.07-2.08,1.8.11-.07-.66c-.06-.5-.12-1-.17-1.45l-1.75-.06c0,.29.06.58.08.87Zm-22.62-.82,1.71,0-.08-1.76h-1.68Zm-40.12,16,.84-10.5c.12-1.43.23-2.86.34-4.3s.23-2.92.34-4.38l.12-1.44h1.74c2.15-.06,3.7.5,4.62,1.67a7.94,7.94,0,0,1,1.5,4,26.26,26.26,0,0,1,.09,4.54,19.42,19.42,0,0,1-1.41,6.55A6.15,6.15,0,0,1,85.7,44.7Zm4.54-17.43c-.07,1-.15,1.92-.22,2.88-.11,1.43-.22,2.87-.34,4.3l-.54,6.72a2.68,2.68,0,0,0,1.86-1.58,16.57,16.57,0,0,0,1.15-5.48,22.77,22.77,0,0,0-.08-4,4.9,4.9,0,0,0-.84-2.44A1.53,1.53,0,0,0,87.59,27.47ZM30.1,33l1.38-5.74c.58-2.44,1.16-4.88,1.77-7.33l.27-1.12,2.08-.13a10.63,10.63,0,0,1,3.68.14,3.28,3.28,0,0,1,2.26,2.6,8.85,8.85,0,0,1-.14,4.05,11.35,11.35,0,0,1-1.56,3.92,6.07,6.07,0,0,1-2.59,2.34,16.34,16.34,0,0,1-3.66.82l-1.23.17ZM36,21.79c-.51,2.07-1,4.13-1.49,6.19l-.31,1.27A9.17,9.17,0,0,0,36,28.81a3,3,0,0,0,1.18-1.18,8.31,8.31,0,0,0,1.11-2.85,5.94,5.94,0,0,0,.16-2.59,1.54,1.54,0,0,0-.14-.38A10.46,10.46,0,0,0,36,21.79Z"/><path class="cls-3" d="M183.36,59.66c-7.9-2.1-15.64-4-23.31-5.58-.4-2.87-.76-5.74-1.14-8.63l1.8.29c-.42-3.16-.86-6.33-1.29-9.49s-.87-6.33-1.32-9.49l-1.7-.11c-.38-2.89-.78-5.78-1.14-8.67q10,.15,20.1.49c.44,2.2.83,4.41,1.25,6.6s.89,4.4,1.32,6.6L172.07,31c-.19-1.06-.36-2.12-.55-3.18l-5-.43c.32,2,.64,3.92.93,5.87l4.46.54c.45,2.68.91,5.35,1.4,8l-4.58-.75,1,6.27,5.39,1.09c-.19-1.06-.38-2.12-.58-3.18l6.2,1.25c.45,2.2.84,4.41,1.28,6.6s.87,4.39,1.29,6.58m-25.49-6q-11.28-1.92-22.38-3.1c-.17-2.59-.36-5.19-.5-7.8.57,0,1.16.09,1.76.12-.22-2.84-.41-5.69-.6-8.54s-.38-5.7-.59-8.55l-1.72,0c-.15-2.61-.32-5.23-.49-7.84,6.67,0,13.33,0,20,0,.23,1.91.45,3.82.7,5.72s.49,3.81.74,5.72L149.08,29c-.11-.93-.21-1.86-.3-2.78l-4.9-.2c.15,1.73.32,3.46.47,5.19,1.44.09,2.9.19,4.35.27.25,2.34.51,4.69.76,7L145,38.11c.17,1.84.37,3.69.54,5.54l5.2.6c-.09-.93-.2-1.85-.3-2.78l6,.76q.36,2.87.73,5.71C157.39,49.85,157.61,51.75,157.87,53.65Zm-33-3.82c-4.67-.17-9.34-.23-14-.21,0-2.52,0-5,0-7.56.79,0,1.59,0,2.38,0,0-2.74,0-5.49,0-8.23s0-5.49,0-8.23h-2.36c0-2.54,0-5.07.06-7.6,6.9,0,13.76,0,20.64-.06.1,1.78.21,3.57.31,5.35s.22,3.57.3,5.35l-5.73-.12c0-1-.08-1.92-.13-2.88l-4.79,0q.06,2.46.12,4.89l3.76.05c.09,2.16.15,4.33.26,6.49l-3.85-.08c.07,1.74.11,3.47.15,5.21l2.61.07C124.65,44.76,124.73,47.3,124.84,49.83ZM84.13,51.18c-3.61.42-7.24.92-10.89,1.47q.44-4.15.89-8.31l1.8-.23,1-9c.32-3,.61-6,.93-9-.55,0-1.12.06-1.7.09.32-2.77.62-5.54.94-8.32h10a19.3,19.3,0,0,1,5.56.67,9.16,9.16,0,0,1,4,2.68,13.75,13.75,0,0,1,2.8,5.47,23.16,23.16,0,0,1,.74,3.53,24.28,24.28,0,0,1,.15,3.95,22.77,22.77,0,0,1-1.53,7.63,15.25,15.25,0,0,1-3.37,5.4,11,11,0,0,1-4.29,2.7A39.44,39.44,0,0,1,84.13,51.18Zm2-25.33c-.23,2.89-.44,5.79-.68,8.67s-.46,5.79-.7,8.68l.81-.07a4.64,4.64,0,0,0,4.22-2.7,18,18,0,0,0,1.28-6A24.16,24.16,0,0,0,91,30.15a6.29,6.29,0,0,0-1.17-3.24c-.59-.76-1.69-1.11-3.33-1.07ZM71.22,53q-11.37,2.06-23,4.87c.53-3.15,1.1-6.31,1.66-9.46.61-.13,1.23-.27,1.84-.38.6-3.4,1.17-6.8,1.76-10.19s1.19-6.8,1.72-10.2l-1.72.15q.9-4.75,1.72-9.51c6.69-.16,13.4-.27,20.06-.33-.21,1.87-.41,3.75-.63,5.61s-.43,3.75-.66,5.62q-2.86.18-5.73.39c.12-1,.25-1.93.36-2.9-1.64.09-3.27.19-4.93.31-.25,1.91-.55,3.8-.8,5.69,1.44-.14,2.9-.29,4.37-.41-.34,2.45-.66,4.91-1,7.36-1.51.19-3,.4-4.5.61-.27,2-.61,4-.91,6.07,1.76-.31,3.54-.59,5.28-.85.15-1,.28-1.93.41-2.89,2-.27,4-.55,6-.77-.23,1.86-.46,3.74-.67,5.61S71.41,51.12,71.22,53ZM211.53,68.47q-9.3-3.1-18.3-5.92c-1-4.34-1.95-8.7-2.88-13l2.63.62c-1.11-4.82-2.19-9.65-3.27-14.46S187.52,26,186.4,21.19l-3.06-.2c.72,3.28,1.42,6.56,2.12,9.84-1.74-.23-3.5-.44-5.24-.65-.74-3.68-1.5-7.36-2.23-11s-1.48-7.36-2.25-11q12.51-.39,25.07-.5c1.23,4.45,2.51,8.9,3.76,13.35l3.75,13.33-5.39-.9c-1-3.68-2-7.38-3-11.07l-3.1-.29q2,7.8,4,15.59t4,15.58l2.74.73Q209.58,61.2,211.53,68.47Zm-185-4.37q-8.85,2.87-18,6.08,2.07-7.47,4.14-15l2.57-.73c1.44-5.34,2.9-10.7,4.35-16s2.89-10.69,4.35-16l-2.21.22q2-7.5,4.14-15c4.59,0,9.15.09,13.74.19A33.72,33.72,0,0,1,43.05,8a19.51,19.51,0,0,1,2.61.47,9.11,9.11,0,0,1,1.93.72c1.62.83,2.7,2.54,3.34,5.1a21.3,21.3,0,0,1,0,9.06,26.36,26.36,0,0,1-2.44,7.25,16.52,16.52,0,0,1-3.91,5.14c.53,3.74,1.1,7.4,1.7,11l2.12-.43-2.16,12c-3.74,1-7.48,2-11.25,3.14-.39-3.31-.74-6.67-1-10.08s-.51-7-.75-10.55l-3.58.72c-.77,3.22-1.55,6.43-2.3,9.65l2.3-.59Zm8.23-43.8c-.89,3.62-1.74,7.23-2.61,10.85L33.37,31a15.55,15.55,0,0,0,3.27-.71,4.54,4.54,0,0,0,1.89-1.77,10,10,0,0,0,1.34-3.38A7.58,7.58,0,0,0,40,21.8a1.85,1.85,0,0,0-1.17-1.48,10.61,10.61,0,0,0-3.14-.08Z"/><path class="cls-4" d="M159.32,6a4.72,4.72,0,0,1,.08-1.8,2.82,2.82,0,0,1,.87-1.46,2.16,2.16,0,0,1,.48-.33,2.3,2.3,0,0,1,.56-.18A2.78,2.78,0,0,1,162,2.2a3.32,3.32,0,0,1,2.59,1.17,5.74,5.74,0,0,1,.86,1.24A5.11,5.11,0,0,1,165.89,6a4.46,4.46,0,0,1,0,1.45,3.31,3.31,0,0,1-.46,1.25,2.41,2.41,0,0,1-2.23,1.14,3.59,3.59,0,0,1-2.57-1.07,4.46,4.46,0,0,1-.88-1.23A5.33,5.33,0,0,1,159.32,6m2.52,0a5.58,5.58,0,0,0,.47,1.67.74.74,0,0,0,.63.44.51.51,0,0,0,.52-.43,4.78,4.78,0,0,0-.1-1.68,5.75,5.75,0,0,0-.46-1.67.74.74,0,0,0-.64-.44.5.5,0,0,0-.5.43A5.13,5.13,0,0,0,161.84,6Zm-7.68-4.15h-.93a2.78,2.78,0,0,1,.2-1.39A.72.72,0,0,1,154.1,0a2,2,0,0,1,.85.29,1.11,1.11,0,0,0,.47.17q.26,0,.27-.48h.9a2.46,2.46,0,0,1-.12,1.37.77.77,0,0,1-.74.52,1.6,1.6,0,0,1-.79-.27,1.29,1.29,0,0,0-.48-.2C154.25,1.42,154.17,1.57,154.16,1.89Zm1.15,7.87H153L152.74,8h.45c.1-.64.2-1.29.29-1.93s.19-1.29.29-1.93h-.47c-.08-.59-.16-1.19-.25-1.78h4.14c.08.59.18,1.19.26,1.78H157c.28.64.58,1.28.85,1.93s.56,1.29.85,1.93h.44c.07.59.17,1.18.27,1.77h-3.08l-.24-1.63h.52l-.36-.93h-1.5l-.12.93h.48C155.16,8.67,155.24,9.22,155.31,9.76Zm-.22-5.53c-.1.68-.17,1.37-.26,2.05h1C155.61,5.6,155.34,4.91,155.09,4.23Zm-6,5.53h-3.2c-.06-.59-.13-1.18-.19-1.77h.48c-.08-.64-.13-1.29-.2-1.93s-.15-1.29-.23-1.93h-.47c-.05-.59-.12-1.19-.19-1.78h3.13l.78,0,.62,0,.48.1a2,2,0,0,1,1.07.72,2.64,2.64,0,0,1,.55,1.33,2.1,2.1,0,0,1-.1,1,1.26,1.26,0,0,1-.52.68c.34.57.67,1.13,1,1.7h.4c.08.59.17,1.18.24,1.77h-2.12c-.28-.5-.57-1-.83-1.51L149,6.74h-.71c0,.42.09.83.14,1.25h.44C148.92,8.58,149,9.17,149.06,9.76ZM148,4c.05.47.11.94.17,1.41h.25a4.06,4.06,0,0,0,.65,0,.45.45,0,0,0,.29-.21.77.77,0,0,0,.07-.45.84.84,0,0,0-.19-.46.64.64,0,0,0-.35-.21,3.53,3.53,0,0,0-.69,0Zm-4.06,5.78h-3.31q-.09-.88-.15-1.77h.49c-.07-.64-.11-1.29-.17-1.93s-.13-1.29-.2-1.93h-.65c0,.45.09.9.13,1.34h-1.09c-.05-.52-.1-1-.14-1.56s-.09-1-.14-1.56h5.7c0,.52.12,1,.17,1.56s.11,1,.16,1.56h-1.08l-.15-1.34h-.67c.08.64.14,1.29.21,1.93s.13,1.29.19,1.93h.53C143.77,8.58,143.83,9.17,143.89,9.76Zm-4.39,0h-5.6c0-.59-.09-1.18-.13-1.77h.53c-.05-.64-.09-1.29-.13-1.93L134,4.13h-.52c0-.59-.07-1.19-.12-1.78h3.28c.06.59.1,1.19.14,1.78h-.54c.05.64.11,1.29.16,1.93s.09,1.28.15,1.92H138c0-.39-.06-.78-.1-1.18h1.4c0,.5.08,1,.13,1.48Zm-6.41,0h-5.62L127.38,8h.46l-.09-1.93c0-.64-.07-1.29-.1-1.93h-.46c0-.59,0-1.19-.08-1.78h5.49c.06.79.11,1.58.16,2.37h-1.52c0-.19,0-.39,0-.59h-1.31L130,5.27h1.15c0,.5.05,1,.09,1.5H130c0,.41,0,.81.08,1.21h1.32c0-.2,0-.39,0-.59h1.52C133,8.18,133,9,133.09,9.76Zm-9.69,0h-3.34c0-.59,0-1.18,0-1.77h.5c0-.64,0-1.29,0-1.93s0-1.29,0-1.93h-.5c0-.59,0-1.19,0-1.78h3.49a6.17,6.17,0,0,1,1.62.16,1.53,1.53,0,0,1,.9.63,2.07,2.07,0,0,1,.38,1.13,1.47,1.47,0,0,1-.26,1,1.64,1.64,0,0,1-.74.54,2,2,0,0,1,1,.72,2.12,2.12,0,0,1,.38,1.12,2,2,0,0,1-.32,1.27,1.62,1.62,0,0,1-1,.67A8.19,8.19,0,0,1,123.4,9.76ZM122.67,4c0,.45,0,.9,0,1.35h.49c.35,0,.56-.06.66-.18a.84.84,0,0,0,.14-.49.79.79,0,0,0-.17-.47Q123.7,4,123.08,4Zm.08,2.69c0,.49,0,1,0,1.46h.51A1.19,1.19,0,0,0,124,8a.65.65,0,0,0,.19-.56.82.82,0,0,0-.21-.56,1.12,1.12,0,0,0-.74-.18ZM110.47,6a4.88,4.88,0,0,1,.38-1.8,3.56,3.56,0,0,1,1.09-1.46,3,3,0,0,1,.52-.33,3.18,3.18,0,0,1,.6-.18,3.11,3.11,0,0,1,.69-.07,2.81,2.81,0,0,1,2.4,1.17,4.33,4.33,0,0,1,.65,1.24A4.76,4.76,0,0,1,117,6a4.89,4.89,0,0,1-.19,1.45,4.21,4.21,0,0,1-.67,1.25,2.86,2.86,0,0,1-2.4,1.14,3,3,0,0,1-2.4-1.07,3.55,3.55,0,0,1-.69-1.23A5.31,5.31,0,0,1,110.47,6ZM113,6a5,5,0,0,0,.19,1.67.61.61,0,0,0,.57.44.61.61,0,0,0,.58-.43A4.86,4.86,0,0,0,114.51,6a5.06,5.06,0,0,0-.19-1.67.58.58,0,0,0-1.13,0A4.71,4.71,0,0,0,113,6Zm-4.83.46,1.51.68a3.69,3.69,0,0,1-.9,1.94,2.57,2.57,0,0,1-2,.76,2.86,2.86,0,0,1-2.48-1.11,3.59,3.59,0,0,1-.59-1.23,5.39,5.39,0,0,1-.15-1.48,5.8,5.8,0,0,1,.25-1.49,4.43,4.43,0,0,1,.62-1.25,2.45,2.45,0,0,1,2.06-1.12,2.18,2.18,0,0,1,1.64.64c0-.16,0-.32,0-.49h1.38c0,.45,0,.9,0,1.35s0,.91,0,1.36h-1.45a1.69,1.69,0,0,0-.36-.81A.82.82,0,0,0,107.1,4c-.62,0-.94.69-1,2.07s.28,2.08.93,2.08S108,7.58,108.17,6.5Zm-8.8,3.26H98c0-.79.07-1.59.12-2.38h1.31c.13.65.41,1,.84,1a.44.44,0,0,0,.49-.48.54.54,0,0,0-.14-.41,3.09,3.09,0,0,0-.73-.5,5.76,5.76,0,0,1-1-.71,2.14,2.14,0,0,1-.5-.75,2.42,2.42,0,0,1-.17-1,2.5,2.5,0,0,1,.61-1.62,1.73,1.73,0,0,1,1.29-.58,1.65,1.65,0,0,1,1.26.56c0-.15,0-.31,0-.46h1.3l-.06,2.11h-1.3c-.13-.58-.41-.88-.8-.88a.41.41,0,0,0-.44.47.38.38,0,0,0,.1.33,5.4,5.4,0,0,0,.73.52,9.93,9.93,0,0,1,1.12.8,1.75,1.75,0,0,1,.28.34,3.19,3.19,0,0,1,.23.45,2.89,2.89,0,0,1,.21,1.14,2.44,2.44,0,0,1-.6,1.57,1.84,1.84,0,0,1-1.42.66,1.92,1.92,0,0,1-1.38-.58C99.39,9.44,99.38,9.6,99.37,9.76Zm-2,0H94c0-.59.07-1.18.1-1.77h.55c0-.65.07-1.29.12-1.93s.07-1.29.12-1.93h-.54c0-.6.07-1.19.11-1.78h3.27l-.09,1.78h-.53c0,.64-.07,1.28-.1,1.93s-.07,1.28-.1,1.93h.54C97.39,8.58,97.36,9.17,97.33,9.76ZM92,6.5l1.48.68a4,4,0,0,1-1,1.94,2.64,2.64,0,0,1-2,.76,2.69,2.69,0,0,1-2.42-1.11,3.36,3.36,0,0,1-.52-1.23,5.49,5.49,0,0,1-.07-1.48,6.14,6.14,0,0,1,.32-1.49,4.82,4.82,0,0,1,.71-1.25A2.58,2.58,0,0,1,90.6,2.2a2.06,2.06,0,0,1,1.6.64c0-.16,0-.32,0-.49h1.38c0,.45,0,.9-.08,1.35s-.06.91-.09,1.36H92a1.66,1.66,0,0,0-.32-.81A.73.73,0,0,0,91.08,4C90.46,4,90.1,4.66,90,6s.17,2.08.82,2.08S91.8,7.58,92,6.5ZM82,9.76H79.61c.07-.59.13-1.18.2-1.77h.51c.07-.64.14-1.29.2-1.93l.21-1.93h-.51c.07-.59.14-1.19.2-1.78h2.72L84,4.29c.29.64.57,1.29.87,1.94.06-.7.13-1.4.19-2.1H84.6c.06-.59.12-1.19.17-1.78h2.31c0,.59-.09,1.19-.15,1.78h-.5c-.09,1-.18,1.91-.26,2.87l-.24,2.86H84c-.35-.75-.72-1.49-1-2.24L82,5.37c0,.44-.09.88-.13,1.31s-.08.87-.13,1.31h.52C82.15,8.58,82.09,9.17,82,9.76Zm-6.87,0H72.83c.07-.59.16-1.18.24-1.77h.43c.27-.64.54-1.29.8-1.93s.53-1.29.8-1.93h-.47c.08-.59.16-1.19.23-1.78H79c0,.59-.13,1.19-.2,1.78h-.46l.33,1.93c.11.64.22,1.29.34,1.93h.44c-.06.59-.13,1.18-.19,1.77H76.16c.07-.54.13-1.09.2-1.63h.51c0-.31-.07-.62-.11-.93h-1.5c-.13.31-.24.62-.37.93h.48C75.31,8.67,75.23,9.22,75.17,9.76ZM76.4,4.23l-.81,2.05h1.06C76.56,5.6,76.47,4.91,76.4,4.23ZM68.92,9.76H65.71c.1-.59.2-1.18.28-1.77h.48c.1-.64.2-1.29.29-1.93s.21-1.29.3-1.93h-.48c.1-.59.19-1.19.28-1.78H70l.77,0,.61,0a3.78,3.78,0,0,1,.46.1,1.43,1.43,0,0,1,.88.72,2.08,2.08,0,0,1,.21,1.33,2.66,2.66,0,0,1-.38,1,1.84,1.84,0,0,1-.71.68c.19.57.38,1.13.58,1.7h.42c-.08.59-.15,1.18-.24,1.77H70.47L70,8.25c-.13-.5-.29-1-.41-1.51h-.72c-.06.42-.12.83-.19,1.25h.45C69.1,8.58,69,9.17,68.92,9.76ZM69.31,4c-.07.47-.12.94-.21,1.41h.26a4.59,4.59,0,0,0,.67,0,.72.72,0,0,0,.35-.21.85.85,0,0,0,.2-.45.67.67,0,0,0-.07-.46.42.42,0,0,0-.3-.21,3.41,3.41,0,0,0-.68,0ZM63,9.76H59.42c.11-.59.22-1.18.31-1.77h.62c.12-.64.22-1.29.34-1.93s.23-1.29.33-1.93h-.61c.1-.59.21-1.19.31-1.78h5.65C66.25,3.17,66.12,4,66,4.8H64.46c0-.23.06-.45.1-.67h-1.3c0,.38-.12.76-.19,1.14h1c-.07.5-.16,1-.23,1.5h-1c-.08.41-.14.82-.2,1.22h.67C63.22,8.58,63.12,9.17,63,9.76Z"/><path class="cls-1" d="M124.83,112.09c-5.67,0-12-2.51-18.67-5.16s-13.85-5.49-20.45-5.69a1.74,1.74,0,0,1-.65-3.41c1.33-.61,2.13-1.39,2-2a1.47,1.47,0,0,0-1.26-1c-4.38-.66-9.41.33-14.28,1.28-6.24,1.22-12.14,2.37-15.86-.35A1.82,1.82,0,0,1,54.85,94a1.76,1.76,0,0,1,1.06-1.38C77.14,82.49,86.48,74,93.48,66.12a4.7,4.7,0,0,1-.69-.39l-3.48-2.24,4.07-.72-5.66-2.18,6.49-.78c4.91-.59,9.93-1.39,12.7-4.12a37.06,37.06,0,0,1,15.18-9.4l-4.51-3.68,6.3,1.2.85.15a5.35,5.35,0,0,1-.39-.88L123,39.37l3.54,1.71c3.31,1.61,7.41,2.35,11.38,3.07a49.57,49.57,0,0,1,7.67,1.77c1.13.41,2.65,1.55,5,3.37.78.6,1.61,1.23,2.37,1.79l.81-1.49,1.54,1.53c3.31,3.31,3.81,4.2,4.84,8.63.47,2,.94,3,2.37,3.71l.58.27.24.59c.55,1.36,1,2.8.32,4.05s-1.94,1.65-3.39,2l-.08.07c-.19.14-.39.3-.51.41s0,.24.08.48c.5,3-.45,4.84-1.86,7.07a5,5,0,0,0-1,3.77c.22,2.24-.57,3.37-1.6,4a16.15,16.15,0,0,0,2.73,4.73l.79,1.06L158,93a4.76,4.76,0,0,1-2.33,1.26l-.48.15v0a21.06,21.06,0,0,0,3,5.8c.25.39.5.77.74,1.16a1.73,1.73,0,0,1,0,1.83c-.4.66-1.4,1.39-3.87,1.17a6.85,6.85,0,0,1-2.54-.83c-.17,1.92-.68,4-2.09,4.19a1.89,1.89,0,0,1-2-1.2,6.34,6.34,0,0,0-4.84-3.14c-4.68-.63-10.82,2.38-16.86,8.25l-.43.42-.61,0ZM89.57,98.34c6,.88,12,3.26,17.78,5.57,6.47,2.57,12.57,5,17.67,4.93,6.71-6.37,13.47-9.46,19.09-8.7a9.88,9.88,0,0,1,5.29,2.36c0-.42,0-.88,0-1.39l-.06-2.27,2.17.68a15.36,15.36,0,0,1,2.33,1,9.18,9.18,0,0,0,1.06.48,20.3,20.3,0,0,1-2.81-5.75,3,3,0,0,1,.07-2.39,3.43,3.43,0,0,1,2.18-1.62,14.28,14.28,0,0,1-2.47-5.77l-.22-1.41,1.38-.4a2.19,2.19,0,0,0,.68-.27h0a2,2,0,0,0,0-.9,8.21,8.21,0,0,1,1.47-5.82c1.26-2,1.71-2.93,1.41-4.75-.44-2.16.19-2.92,1.62-4l.65-.51.36-.08a8.19,8.19,0,0,0,1.54-.45,4.13,4.13,0,0,0-.21-.75c-2.37-1.39-3.07-3.6-3.54-5.59a12.6,12.6,0,0,0-1.41-4.18l-2.06-1a36.79,36.79,0,0,1-4.91-3.41A29.11,29.11,0,0,0,144.52,49a48.7,48.7,0,0,0-7.14-1.63c-1.67-.3-3.45-.62-5.21-1l1.16.8-.54.05.18,0-6.29,1.25A33.32,33.32,0,0,0,109.19,58a13.65,13.65,0,0,1-4.34,2.79h2.36l-6.11,3.07a18.43,18.43,0,0,1-2.11.87l-1.23,1.43c-7.16,8.3-16,17.27-37.44,27.91,2.8.36,6.63-.39,10.61-1.16,4.9-1,10.46-2,15.39-1.3a4.7,4.7,0,0,1,4,3.78A4.15,4.15,0,0,1,89.57,98.34Z"/><path class="cls-5" d="M153.5,85.21c1.33-.38,2.08-.88,1.88-2.89a6.54,6.54,0,0,1,1.22-4.79c1.3-2.06,2.05-3.43,1.64-5.89-.33-1.62,0-1.68,1.39-2.78,2.82-.62,3.39-1.17,2.27-3.93-2.09-1-2.74-2.62-3.26-4.81-1-4.1-1.29-4.73-4.41-7.85a1.63,1.63,0,0,0,.08,1.55c-2.47-1.24-7.35-5.69-9.23-6.37-4.92-1.78-13.24-2-19.21-4.91a7.65,7.65,0,0,0,2.86,3.39,22.48,22.48,0,0,1-5.15-.53,7.72,7.72,0,0,0,2.78,1.48,35,35,0,0,0-18.31,10c-3.06,3-8.2,3.92-13.65,4.57a16.52,16.52,0,0,0,6,1,25.57,25.57,0,0,1-6.7,2,4.72,4.72,0,0,0,2.86.73c-7.66,8.87-16.81,18-39.92,29-.14.07-.15.1-.15.13s0,.11.2.23c5.73,4.19,19.09-2.78,29.42-1.22,2.58.39,4.53,3.85-.34,6.09-.33.15-.5.3,0,.32,13.74.41,28.81,11.4,39.93,10.83,10.9-10.6,20.66-10.86,24.22-4.8.08.14.22.47.39.45s.83-1.85.74-5c1.87.58,2.9,1.54,4.24,1.66,1.89.17,2.46-.36,2.35-.52-1.6-2.53-3.34-4.93-4-7.44-.83-2.31,2.18-1.77,3.16-2.89-1.8-2.39-2.95-4.33-3.32-6.67"/><path class="cls-3" d="M143.17,76.74c2.14-2.34,5.53-3.81,6.74-3.72,2,.47,2.82-.14,4.77.33l1.69.89c.21.31-.14,1.07-.89,2.39a28.65,28.65,0,0,0-2.09,5.2,1,1,0,0,1-1,.56,18.41,18.41,0,0,1-3.28-.79c-.81-.15-1.66,0-2.46-.24a10.63,10.63,0,0,1-2.79-1.08,2.53,2.53,0,0,1-.66-3.54m8.73-10.59c1,.94,1.94.3,3,2,.65,1.46-.75,1.36-1.33.31-.75-1.82-3.12-2.3-3.63-2.61-2.14,0-2.69-.54-3.68-2-.81-1.26-6-1.35-6.95-.14-.32,3.79,6.49,2.22,5.46,4.26,1.79-.83,2.38-1.84,2.22.45-2.63,1.71-6.69,4.81-8.29,7.17A14.85,14.85,0,0,1,144.94,72a23.81,23.81,0,0,1-4.8,4.59,5.32,5.32,0,0,0-1.41,2.81c2.36-.4,2.78.26,4.05,1.8.39.48.7,1.15,1.29,1.35a12.13,12.13,0,0,0,3.08.11,32.53,32.53,0,0,1,5.39,1.06c.42.1.84.4,1.26.29a1.14,1.14,0,0,0,.68-.79,8.43,8.43,0,0,0,.11-1.67c.37-3.35,1.27-3.94,2.58-6.74.49-1,.67-4.78-.83-4.78-1.47-.29-.2-1.53.87-.55,1.4-.42-1.2-2.17-2.06-2.8S151.9,64.21,151.9,66.15Z"/><path class="cls-4" d="M149.68,73c1.64.61-.41,2.58.52,2.41A4.29,4.29,0,0,0,152,74.12c.27-.33,2-.17,2.64.61.23.29,0,.92-.09,1.08-.71,1.51,1.65-.91,2.1-1.55a3.46,3.46,0,0,0-2.13-1.44,5.94,5.94,0,0,0-4.06,0Z"/><path class="cls-4" d="M143.52,80.2a2,2,0,0,1,1.22-.94c.51-.11,1.14,1.3,3.29,0,1.68-1,.82.48.37,1.17-.12.28.08.41.35.48,2.65.6,3.24.94,4.43-.58s.79,2.72-.64,2.65-2.22-1.09-6.8-1.29c-.74,0-2.22-1.5-2.22-1.5"/><path class="cls-4" d="M147.51,60.84a15.46,15.46,0,0,1,2.79,2.25c-1.51,2-2.52-1-2.79-2.25"/><path class="cls-6" d="M121.32,66.8c8.41,2.46,15.81-1.69,22.87-8-1.48-.62-3.27-1-4.63-1.42s-4.05-1.41-4.15-3c1-.09,4,.79,4.59.13.4-.42-.69-.16-1.5-.84,1.26,0,1.65.19,2.23-.28.32-.26-1.38-.39-1.06-.66,1-.82,6.26-.25,7.41,0a4.28,4.28,0,0,1,2,.89c1.66,1.48,2.25,4.22,4.12,5.51.43.3,1.05.27,1.45.61,1.06.9.53,2.38-.3,3.54.77,1,1.68,1.71,3,1.15.12-.32.23-.63.35-.94.21-.58,1.51,1.24,1.53,1.79s-.9,1.1-1.88,1a1.11,1.11,0,0,0,1,1.68c1.06-.71,2.75-1,2.12-2.25a27.86,27.86,0,0,1-3.38-7.89,8.1,8.1,0,0,0-2.32-4.44c.4.89.71,1.75.43,2.3C153.11,54.55,148,50,145,48.09c-3.94-1.77-10.59-2.28-15.89-3.42a17.78,17.78,0,0,0,6.84,2.65,55.72,55.72,0,0,1-8-.34l1,.68c-9.83,1.77-15,5.45-18.71,9.74A47,47,0,0,1,103.89,63a7.38,7.38,0,0,0,3-.26,45.58,45.58,0,0,1-6.67,5.55,43.36,43.36,0,0,0,7.52-4.1,41.23,41.23,0,0,1-7.6,8.12,33.78,33.78,0,0,0,7.34-3.08c-3.28,8.82-19.36,14.1-27,18.12,9,1.79,19.44-.5,31.79-8.21A40.74,40.74,0,0,1,106,83.55a55,55,0,0,0,8.46-3.25c-6.59,6.78-15.07,10.33-24.18,12.82a50.77,50.77,0,0,0,12.47-2A17.29,17.29,0,0,1,95.51,96c5.23,1.62,10.5-.26,15.81-4.78a23.18,23.18,0,0,1-7.09,8.88,61.76,61.76,0,0,0,12.47-7.77,18.93,18.93,0,0,1-6.49,8,12.84,12.84,0,0,0,3.93-1.71,2.52,2.52,0,0,1-.6,2.31,10.45,10.45,0,0,0,3.85-2.14c-.12,1.28-.23,2.57-.35,3.85a25.8,25.8,0,0,0,5.9-7.18,15,15,0,0,1-3.08,6.24,11.43,11.43,0,0,1,4.53-2.57c-.33,2.13-1.64,3.77-3,5.39,4.77-2.24,7.75-6.78,10.17-12a19.25,19.25,0,0,1-11.11-6.84c5.35,2.47,9.63,3.44,11,.43.24-1.16-.6-1.73-1.88-2,3.27-.53,5.7-2.74,8-5.3-3.14-1.71-3.07-3.94-.34-6.58-2.65.58-5,2.36-7.35,4.53,2.06-2.17,3.1-4,2.65-5.21-6.57,6.14-13.53,6.26-20.76,2,5.51.42,10.78.3,14.69-2.9a8.24,8.24,0,0,1-5.12-3.85"/><path class="cls-6" d="M153.2,63.29a1.32,1.32,0,0,1-1.33.16c-1-.59-1.46-1.75-2.34-2.45-2.95-2.31-5.87-3-9.14-4.34a6.75,6.75,0,0,1-2.22-1.28c1,0,4.56.92,5.34,0,.3-.35-.66-.45-1.14-1,1.12-.24,1.85.36,2.48-.16.34-.29-1-.79-.73-1.12a4.88,4.88,0,0,1,4.07.5c1.37,1.13,2.28,3.68,3.4,5.13a3.38,3.38,0,0,0,1.06.89c.4.22.95.12,1.33.39,1.14.78,0,2.69-.78,3.23"/><path class="cls-6" d="M124,87.86c3,.76,5.46,1.36,8.51-.09A21.85,21.85,0,0,0,138.39,83a2.77,2.77,0,0,1,3.15-1.15c.85.32,2,1.18,1.33,2.39-2,3.82-6.57,6.87-10.62,10.07a13.36,13.36,0,0,0,1.25-3.5c-5.14.49-7.47-1.12-9.48-3"/><path class="cls-6" d="M144.68,93a21.65,21.65,0,0,0,5,9.92,36.36,36.36,0,0,0-1.35-8.3,17.2,17.2,0,0,0,5.48,6.5,17.22,17.22,0,0,1-2.59-5.52,14,14,0,0,0,3.3,4.43c-2.31-3.6-3.44-6.32-3.75-8.42a4.73,4.73,0,0,1,.53-3.27,10.21,10.21,0,0,0,3.56,3,15,15,0,0,1-2.18-5.71c-.33,1.12-.83,2-1.87,2a4.21,4.21,0,0,0-3-1.28,20.16,20.16,0,0,0,.15,6.91c-.84-2.28-1.56-3.86-1.8-2.93A4.88,4.88,0,0,1,144.68,93"/><path class="cls-6" d="M130.08,98c4.63-3,9-4.77,12.26-8.18,1.07-1.13,1.56-2.63,2.48-4.19,2.2,2.55-.73,5.55-2.14,7.63-3.33,1.72-5.9,4.79-8.32,8.14-.62-2.42-.53-1.94-2.82-1.07.56-2.09.63-1.8-1.46-2.33"/></g></g></svg>