<svg xmlns="http://www.w3.org/2000/svg" viewBox="0 0 150.2 100"><defs><style>.cls-1,.cls-5{fill:#b9c9d2;}.cls-2,.cls-3,.cls-4,.cls-5{fill-rule:evenodd;}.cls-3{fill:#cd1337;}.cls-4{fill:#fff;}</style></defs><title>red-feet-symbol</title><g id="Layer_2" data-name="Layer 2"><g id="Layer_1-2" data-name="Layer 1"><path class="cls-1" d="M96.25,100c-7.79,0-16.49-3.45-25.67-7.1-9.36-3.71-19-7.55-28.12-7.82a2.4,2.4,0,0,1-.89-4.69c1.82-.84,2.93-1.91,2.81-2.73a2,2,0,0,0-1.75-1.42c-6-.91-12.94.45-19.63,1.76-8.58,1.68-16.69,3.26-21.8-.49A2.47,2.47,0,0,1,0,75.11a2.4,2.4,0,0,1,1.46-1.9c29.19-13.92,42-25.65,51.66-36.43a8.14,8.14,0,0,1-1-.53l-4.78-3.09,5.6-1-7.78-3,8.92-1.07c6.75-.81,13.66-1.91,17.47-5.67A50.86,50.86,0,0,1,92.49,9.51l-6.2-5.06L95,6.11l1.16.21a8.87,8.87,0,0,1-.54-1.22L93.8,0l4.86,2.36c4.55,2.21,10.2,3.23,15.65,4.21A68.45,68.45,0,0,1,124.86,9c1.55.56,3.65,2.13,6.91,4.63,1.07.82,2.21,1.7,3.27,2.46l1.11-2.05,2.11,2.11c4.55,4.55,5.24,5.77,6.67,11.86.64,2.72,1.29,4.18,3.26,5.1l.79.38.33.81c.76,1.88,1.34,3.85.44,5.56s-2.67,2.28-4.66,2.75l-.12.09-.7.56c0,.13,0,.34.11.67.7,4.17-.62,6.66-2.55,9.72a6.8,6.8,0,0,0-1.34,5.19c.3,3.07-.79,4.62-2.22,5.5A22.57,22.57,0,0,0,142,70.87l1.09,1.45-1.2,1.36a6.46,6.46,0,0,1-3.2,1.73l-.66.21v0c.64,2.56,2.35,5.2,4.15,8,.35.52.69,1.05,1,1.59a2.37,2.37,0,0,1,0,2.51c-.55.9-1.93,1.92-5.32,1.62a9.69,9.69,0,0,1-3.5-1.15c-.23,2.65-.94,5.51-2.86,5.77a2.6,2.6,0,0,1-2.74-1.66A8.75,8.75,0,0,0,122.17,88c-6.43-.86-14.86,3.27-23.17,11.35l-.6.58-.84,0C97.13,100,96.69,100,96.25,100ZM47.77,81.09c8.2,1.21,16.44,4.48,24.45,7.66,8.89,3.53,17.29,6.87,24.3,6.78,9.22-8.76,18.52-13,26.25-12a13.62,13.62,0,0,1,7.28,3.24c0-.57,0-1.21,0-1.91L130,81.77l3,.94a20.73,20.73,0,0,1,3.2,1.36,12.57,12.57,0,0,0,1.46.67,28.58,28.58,0,0,1-3.87-7.91,4.18,4.18,0,0,1,.1-3.29,4.69,4.69,0,0,1,3-2.22,19.6,19.6,0,0,1-3.39-7.93l-.31-2,1.9-.55a2.47,2.47,0,0,0,.94-.38h0a2.59,2.59,0,0,0,0-1.23,11.28,11.28,0,0,1,2-8c1.73-2.75,2.35-4,1.93-6.54-.59-3,.27-4,2.24-5.55l.89-.7.5-.11a10.59,10.59,0,0,0,2.11-.62,5.09,5.09,0,0,0-.28-1c-3.26-1.9-4.23-4.94-4.87-7.68-.68-2.92-1.07-4.37-2-5.75l-2.83-1.42a51.37,51.37,0,0,1-6.75-4.69c-2.09-1.61-4.69-3.6-5.71-4A65,65,0,0,0,113.52,11c-2.31-.41-4.75-.85-7.18-1.41l1.61,1.1-.75.07.25.08-8.66,1.71c-9.16,1.82-16.8,6-24,13.11a18.41,18.41,0,0,1-6,3.83H72l-8.4,4.22a24,24,0,0,1-2.89,1.2l-1.7,2c-9.84,11.41-22,23.74-51.48,38.38,3.85.49,9.11-.53,14.59-1.6,6.74-1.32,14.38-2.81,21.16-1.79A6.47,6.47,0,0,1,48.8,77,5.68,5.68,0,0,1,47.77,81.09Z"/><path class="cls-2" d="M135.67,63c1.84-.53,2.87-1.21,2.59-4A9,9,0,0,1,140,52.47c1.78-2.83,2.81-4.72,2.24-8.09-.44-2.23,0-2.32,1.91-3.82,3.89-.87,4.67-1.62,3.14-5.42-2.89-1.35-3.78-3.6-4.48-6.61C141.43,22.9,141,22,136.69,17.74a2.22,2.22,0,0,0,.11,2.14c-3.4-1.71-10.11-7.83-12.7-8.77-6.77-2.45-18.2-2.76-26.41-6.74A10.49,10.49,0,0,0,101.62,9a31,31,0,0,1-7.08-.72,10.74,10.74,0,0,0,3.82,2c-10.6,2.1-18.5,7.14-25.18,13.71-4.21,4.15-11.27,5.4-18.77,6.3a22.73,22.73,0,0,0,8.21,1.35,34.45,34.45,0,0,1-9.22,2.69,6.44,6.44,0,0,0,3.94,1C46.81,47.59,34.22,60.07,2.44,75.22c-.19.1-.2.13-.21.18s.07.16.29.31C10.39,81.48,28.77,71.9,43,74c3.55.53,6.22,5.29-.47,8.38-.45.2-.68.4,0,.43,18.89.56,39.61,15.68,54.91,14.89,15-14.58,28.4-14.93,33.3-6.6.12.2.3.65.54.62s1.13-2.54,1-6.92c2.57.81,4,2.12,5.84,2.29,2.59.23,3.36-.5,3.22-.72-2.2-3.47-4.59-6.78-5.46-10.23-1.14-3.17,3-2.44,4.35-4-2.48-3.29-4.06-6-4.58-9.17"/><path class="cls-3" d="M121.48,51.39c2.94-3.21,7.6-5.25,9.26-5.11,2.68.64,3.88-.2,6.56.44L139.63,48c.29.43-.2,1.47-1.22,3.28a39.65,39.65,0,0,0-2.88,7.16c-.18.58-.81.76-1.41.77-1.55,0-3-.82-4.52-1.09-1.11-.2-2.28,0-3.38-.32a14.4,14.4,0,0,1-3.83-1.5,3.46,3.46,0,0,1-.91-4.86m12-14.56c1.41,1.29,2.67.4,4.16,2.74.9,2-1,1.87-1.82.43-1-2.5-4.29-3.17-5-3.58-2.94,0-3.7-.74-5.06-2.83-1.12-1.73-8.22-1.86-9.56-.18-.44,5.2,8.93,3.05,7.5,5.86,2.47-1.14,3.27-2.55,3.06.61-3.62,2.35-9.2,6.62-11.4,9.86a20.22,20.22,0,0,1,8.55-4.88,32.87,32.87,0,0,1-6.61,6.3A7.33,7.33,0,0,0,115.37,55c3.24-.54,3.82.36,5.57,2.47.54.66,1,1.59,1.77,1.86,1.34.45,2.82.07,4.23.16A44.05,44.05,0,0,1,134.36,61c.58.14,1.16.55,1.74.4a1.53,1.53,0,0,0,.92-1.08,11,11,0,0,0,.16-2.3c.5-4.6,1.74-5.42,3.55-9.28.67-1.41.92-6.56-1.15-6.56-2-.4-.26-2.11,1.2-.76,1.92-.58-1.64-3-2.83-3.85S133.48,34.16,133.48,36.83Z"/><path class="cls-4" d="M130.42,46.31c2.26.83-.56,3.54.72,3.3a5.81,5.81,0,0,0,2.43-1.83c.38-.44,2.75-.23,3.63.84.33.4,0,1.27-.11,1.49-1,2.07,2.26-1.25,2.88-2.13A4.76,4.76,0,0,0,137,46a8.27,8.27,0,0,0-5.58-.07Z"/><path class="cls-4" d="M122,56.15a2.62,2.62,0,0,1,1.67-1.29c.7-.16,1.58,1.78,4.53,0,2.31-1.39,1.13.65.5,1.61-.16.38.12.56.49.66,3.64.83,4.46,1.29,6.1-.8s1.08,3.74-.89,3.64-3.05-1.49-9.35-1.77c-1,0-3.05-2.06-3.05-2.06"/><path class="cls-4" d="M127.45,29.53c1.28,1,2.79,1.76,3.84,3.08-2.08,2.74-3.48-1.36-3.84-3.08"/><path class="cls-5" d="M91.42,37.72c11.58,3.38,21.75-2.32,31.46-11-2-.86-4.49-1.33-6.37-1.95s-5.56-1.94-5.71-4.16c1.43-.12,5.47,1.09,6.32.18.54-.57-1-.21-2.07-1.15,1.74.06,2.27.27,3.07-.38.44-.36-1.89-.55-1.46-.92,1.32-1.13,8.61-.34,10.19,0a5.92,5.92,0,0,1,2.75,1.22c2.28,2,3.1,5.81,5.67,7.59.59.4,1.44.37,2,.84,1.46,1.24.74,3.27-.42,4.86,1.07,1.42,2.32,2.35,4.17,1.58.15-.43.31-.86.47-1.29.29-.79,2.08,1.71,2.11,2.47S142.34,37.11,141,37a1.53,1.53,0,0,0,1.4,2.32c1.45-1,3.77-1.37,2.91-3.1-2-3.63-3.89-7-4.65-10.85a11.24,11.24,0,0,0-3.19-6.12c.55,1.24,1,2.41.59,3.18-2.93-1.58-10-7.89-14.1-10.46-5.42-2.43-14.57-3.13-21.85-4.7a24.32,24.32,0,0,0,9.4,3.64,75,75,0,0,1-11-.47l1.41.94c-13.52,2.43-20.65,7.49-25.73,13.4a63.48,63.48,0,0,1-8.7,7.63,10,10,0,0,0,4.12-.35c-2.22,2.55-5.76,5.09-9.17,7.64a60.29,60.29,0,0,0,10.34-5.64A56.31,56.31,0,0,1,62.28,45.24,46.8,46.8,0,0,0,72.39,41C67.87,53.14,45.77,60.39,35.26,65.92,47.63,68.39,62,65.24,79,54.64a55.63,55.63,0,0,1-8.58,6.11A75.38,75.38,0,0,0,82,56.29C73,65.6,61.3,70.49,48.77,73.91a69.8,69.8,0,0,0,17.16-2.7,23.85,23.85,0,0,1-10,6.69c7.19,2.23,14.44-.36,21.74-6.58q-2.55,6.29-9.76,12.22A85,85,0,0,0,85.08,72.85c-1.49,3.68-4.1,7.37-8.93,11.05a17.79,17.79,0,0,0,5.4-2.35,3.44,3.44,0,0,1-.82,3.17A14.29,14.29,0,0,0,86,81.78c-.16,1.76-.31,3.53-.47,5.29a35.41,35.41,0,0,0,8.11-9.87,20.75,20.75,0,0,1-4.23,8.58,15.64,15.64,0,0,1,6.22-3.53c-.45,2.93-2.26,5.18-4.11,7.4,6.56-3.08,10.66-9.32,14-16.56q-8.67-1.66-15.27-9.4c7.35,3.38,13.23,4.72,15.16.59.32-1.61-.83-2.38-2.59-2.82,4.49-.74,7.83-3.77,10.93-7.29-4.33-2.36-4.23-5.41-.47-9.05-3.64.79-6.93,3.24-10.11,6.23,2.84-3,4.27-5.45,3.65-7.17-9,8.44-18.6,8.61-28.56,2.82,7.58.58,14.84.42,20.21-4a11.35,11.35,0,0,1-7-5.29"/><path class="cls-5" d="M135.27,32.89a1.84,1.84,0,0,1-1.84.23c-1.32-.82-2-2.41-3.21-3.37-4-3.18-8.08-4.06-12.56-6A9.05,9.05,0,0,1,114.59,22c1.44.07,6.27,1.28,7.36,0,.4-.47-.91-.61-1.58-1.3,1.54-.33,2.55.5,3.41-.23.47-.39-1.4-1.08-1-1.53a6.73,6.73,0,0,1,5.59.69c1.89,1.55,3.13,5.06,4.67,7.05a4.65,4.65,0,0,0,1.46,1.22c.56.3,1.31.18,1.83.54,1.57,1.08,0,3.71-1.07,4.44"/><path class="cls-5" d="M95.15,66.68c4,1,7.5,1.87,11.7-.13A29.74,29.74,0,0,0,114.9,60c1.31-1.55,2.83-2.14,4.34-1.57,1.16.44,2.69,1.61,1.82,3.27-2.76,5.27-9,9.46-14.6,13.86a18.42,18.42,0,0,0,1.72-4.82c-7.07.68-10.27-1.53-13-4.08"/><path class="cls-5" d="M123.55,73.75a29.76,29.76,0,0,0,6.91,13.64A50,50,0,0,0,128.6,76a23.69,23.69,0,0,0,7.53,8.93,23.63,23.63,0,0,1-3.55-7.59,19.09,19.09,0,0,0,4.53,6.09c-3.18-5-4.72-8.68-5.15-11.57-.11-2-.24-2.74.72-4.49,1.76,2.09,3.41,3.6,4.9,4.18a20.48,20.48,0,0,1-3-7.85c-.47,1.55-1.15,2.76-2.58,2.79a5.82,5.82,0,0,0-4.18-1.76,27.77,27.77,0,0,0,.21,9.51c-1.16-3.14-2.15-5.31-2.48-4a6.75,6.75,0,0,1-2,3.56"/><path class="cls-5" d="M103.48,80.58c6.36-4.18,12.43-6.55,16.85-11.24,1.47-1.56,2.16-3.62,3.42-5.77,3,3.51-1,7.63-2.94,10.5-4.59,2.36-8.13,6.58-11.45,11.18-.85-3.32-.73-2.66-3.88-1.47.77-2.87.88-2.47-2-3.2"/></g></g></svg>